<svg id="svg" version="1.1" xmlns="http://www.w3.org/2000/svg" xmlns:xlink="http://www.w3.org/1999/xlink" width="400" height="400" viewBox="0, 0, 400,400"><g id="svgg"><path id="path0" d="M212.930 80.955 C 212.012 81.203,211.127 81.540,210.964 81.703 C 210.800 81.866,210.414 82.000,210.105 82.000 C 208.154 82.000,203.259 86.749,201.495 90.353 L 200.200 93.000 200.200 187.208 L 200.200 281.417 201.476 284.008 C 207.862 296.980,226.692 297.160,231.998 284.300 C 233.152 281.504,233.229 281.500,237.553 283.970 C 295.348 316.989,362.313 263.034,345.244 197.200 C 338.499 171.184,316.501 149.373,291.000 143.416 C 289.460 143.056,287.840 142.676,287.400 142.571 C 280.689 140.968,267.459 140.970,260.600 142.575 C 260.160 142.678,258.540 143.057,257.000 143.419 C 250.526 144.938,242.446 148.249,236.723 151.729 C 235.471 152.491,234.346 153.013,234.223 152.890 C 234.101 152.767,234.000 139.803,234.000 124.080 C 234.000 104.427,233.862 94.978,233.557 93.846 C 231.058 84.562,221.560 78.626,212.930 80.955 M282.847 176.567 C 304.995 182.080,318.542 206.082,312.413 228.950 C 308.804 242.418,297.798 254.325,285.600 257.957 C 284.610 258.252,283.320 258.638,282.733 258.814 C 277.344 260.436,266.149 259.969,262.305 257.963 C 261.923 257.763,261.417 257.600,261.180 257.600 C 260.118 257.600,253.657 254.146,251.453 252.400 C 242.808 245.552,238.052 238.623,235.530 229.200 C 227.322 198.528,253.608 169.289,282.847 176.567 " stroke="none" fill="#fbc3fb" fill-rule="evenodd"></path><path id="path1" d="M62.578 141.791 C 58.036 143.227,54.452 146.343,52.312 150.718 L 51.000 153.400 51.000 217.600 L 51.000 281.800 52.281 284.417 C 57.924 295.948,73.146 297.311,81.012 286.990 C 84.964 281.806,84.800 283.861,84.800 239.398 C 84.800 193.660,84.607 195.569,90.031 187.600 C 103.073 168.435,133.526 171.451,143.157 192.861 C 145.684 198.479,145.600 196.900,145.600 238.793 C 145.600 265.126,145.739 277.750,146.048 279.567 C 148.844 295.986,169.855 299.290,177.108 284.452 L 178.600 281.400 178.600 239.000 L 178.600 196.600 177.483 191.916 C 173.740 176.211,165.568 163.240,154.000 154.640 C 152.790 153.741,151.710 152.897,151.600 152.765 C 151.490 152.633,149.853 151.598,147.961 150.465 C 131.660 140.698,113.184 138.533,95.478 144.315 C 93.101 145.091,89.231 146.693,86.878 147.875 C 82.078 150.285,82.872 150.379,80.330 147.099 C 76.741 142.467,68.365 139.963,62.578 141.791 " stroke="none" fill="#7be2ea" fill-rule="evenodd"></path><path id="path2" d="M36.500 0.291 C 35.565 0.376,34.800 0.616,34.800 0.823 C 34.800 1.030,34.170 1.200,33.400 1.200 C 32.630 1.200,32.000 1.380,32.000 1.600 C 32.000 1.820,31.561 2.000,31.024 2.000 C 30.487 2.000,29.936 2.180,29.800 2.400 C 29.664 2.620,29.203 2.800,28.776 2.800 C 28.349 2.800,28.000 2.960,28.000 3.155 C 28.000 3.351,27.370 3.629,26.600 3.774 C 25.830 3.918,25.200 4.208,25.200 4.418 C 25.200 4.628,24.840 4.800,24.400 4.800 C 23.960 4.800,23.600 4.936,23.600 5.102 C 23.600 5.269,23.015 5.660,22.300 5.972 C 21.585 6.284,20.709 6.868,20.353 7.270 C 19.997 7.671,19.536 8.000,19.329 8.000 C 19.121 8.000,18.602 8.318,18.175 8.706 C 17.749 9.094,16.500 10.129,15.401 11.006 C 12.945 12.964,12.964 12.945,11.006 15.401 C 10.129 16.500,9.094 17.749,8.706 18.175 C 8.318 18.602,8.000 19.121,8.000 19.329 C 8.000 19.536,7.684 19.997,7.297 20.353 C 6.911 20.709,6.326 21.540,5.998 22.200 C 5.670 22.860,5.302 23.490,5.180 23.600 C 4.752 23.987,3.600 26.728,3.600 27.360 C 3.600 27.712,3.420 28.000,3.200 28.000 C 2.980 28.000,2.800 28.349,2.800 28.776 C 2.800 29.203,2.620 29.664,2.400 29.800 C 2.180 29.936,2.000 30.487,2.000 31.024 C 2.000 31.561,1.820 32.000,1.600 32.000 C 1.380 32.000,1.200 32.615,1.200 33.367 C 1.200 34.118,0.975 34.808,0.700 34.900 C -0.036 35.145,-0.036 364.855,0.700 365.100 C 0.975 365.192,1.200 365.882,1.200 366.633 C 1.200 367.385,1.380 368.000,1.600 368.000 C 1.820 368.000,2.000 368.540,2.000 369.200 C 2.000 369.860,2.180 370.400,2.400 370.400 C 2.620 370.400,2.800 370.760,2.800 371.200 C 2.800 371.640,2.980 372.000,3.200 372.000 C 3.420 372.000,3.600 372.269,3.600 372.597 C 3.600 373.431,4.923 376.400,5.294 376.400 C 5.462 376.400,5.600 376.760,5.600 377.200 C 5.600 377.640,5.780 378.000,6.000 378.000 C 6.220 378.000,6.400 378.230,6.400 378.512 C 6.400 378.793,6.760 379.283,7.200 379.600 C 7.640 379.917,8.000 380.362,8.000 380.588 C 8.001 380.815,8.406 381.480,8.900 382.068 C 9.395 382.655,10.160 383.634,10.600 384.244 C 12.216 386.484,16.383 390.245,18.750 391.600 C 19.326 391.930,20.068 392.471,20.399 392.803 C 20.730 393.134,21.540 393.674,22.200 394.002 C 22.860 394.330,23.490 394.697,23.600 394.818 C 24.028 395.288,28.315 397.200,28.940 397.200 C 29.303 397.200,29.600 397.380,29.600 397.600 C 29.600 397.820,30.140 398.000,30.800 398.000 C 31.460 398.000,32.000 398.180,32.000 398.400 C 32.000 398.620,32.615 398.800,33.367 398.800 C 34.118 398.800,34.808 399.025,34.900 399.300 C 35.033 399.699,68.392 399.800,199.913 399.800 C 331.257 399.800,364.862 399.698,365.260 399.300 C 365.535 399.025,366.264 398.800,366.880 398.800 C 367.496 398.800,368.000 398.620,368.000 398.400 C 368.000 398.180,368.540 398.000,369.200 398.000 C 369.860 398.000,370.400 397.820,370.400 397.600 C 370.400 397.380,370.725 397.200,371.121 397.200 C 371.948 397.200,376.132 395.212,376.333 394.724 C 376.407 394.546,376.812 394.400,377.233 394.400 C 377.655 394.400,378.000 394.220,378.000 394.000 C 378.000 393.780,378.230 393.600,378.512 393.600 C 378.793 393.600,379.283 393.240,379.600 392.800 C 379.917 392.360,380.420 392.000,380.717 392.000 C 381.014 392.000,381.503 391.775,381.804 391.500 C 382.104 391.225,383.014 390.460,383.825 389.800 C 385.873 388.134,388.376 385.618,389.800 383.795 C 390.460 382.950,391.225 382.033,391.500 381.758 C 391.775 381.482,392.000 381.014,392.000 380.717 C 392.000 380.420,392.360 379.917,392.800 379.600 C 393.240 379.283,393.600 378.793,393.600 378.512 C 393.600 378.230,393.780 378.000,394.000 378.000 C 394.220 378.000,394.400 377.655,394.400 377.233 C 394.400 376.812,394.546 376.407,394.724 376.333 C 395.212 376.132,397.200 371.948,397.200 371.121 C 397.200 370.725,397.380 370.400,397.600 370.400 C 397.820 370.400,398.000 369.860,398.000 369.200 C 398.000 368.540,398.180 368.000,398.400 368.000 C 398.620 368.000,398.800 367.496,398.800 366.880 C 398.800 366.264,399.025 365.535,399.300 365.260 C 400.036 364.524,400.036 35.145,399.300 34.900 C 399.025 34.808,398.800 34.118,398.800 33.367 C 398.800 32.615,398.620 32.000,398.400 32.000 C 398.180 32.000,398.000 31.460,398.000 30.800 C 398.000 30.140,397.820 29.600,397.600 29.600 C 397.380 29.600,397.200 29.303,397.200 28.940 C 397.200 28.315,395.288 24.028,394.818 23.600 C 394.697 23.490,394.330 22.860,394.002 22.200 C 393.674 21.540,393.134 20.730,392.803 20.399 C 392.471 20.068,391.930 19.326,391.600 18.750 C 390.245 16.383,386.484 12.216,384.244 10.600 C 383.634 10.160,382.655 9.395,382.068 8.900 C 381.480 8.406,380.815 8.001,380.588 8.000 C 380.362 8.000,379.917 7.640,379.600 7.200 C 379.283 6.760,378.793 6.400,378.512 6.400 C 378.230 6.400,378.000 6.220,378.000 6.000 C 378.000 5.780,377.640 5.600,377.200 5.600 C 376.760 5.600,376.400 5.462,376.400 5.294 C 376.400 4.923,373.431 3.600,372.597 3.600 C 372.269 3.600,372.000 3.420,372.000 3.200 C 372.000 2.980,371.640 2.800,371.200 2.800 C 370.760 2.800,370.400 2.620,370.400 2.400 C 370.400 2.180,369.860 2.000,369.200 2.000 C 368.540 2.000,368.000 1.820,368.000 1.600 C 368.000 1.380,367.385 1.200,366.633 1.200 C 365.882 1.200,365.192 0.975,365.100 0.700 C 364.943 0.229,41.595 -0.174,36.500 0.291 M221.354 80.467 C 222.259 80.725,223.171 81.085,223.380 81.267 C 223.589 81.450,224.084 81.600,224.480 81.600 C 224.876 81.600,225.200 81.780,225.200 82.000 C 225.200 82.220,225.474 82.400,225.808 82.400 C 227.475 82.400,233.600 89.958,233.600 92.014 C 233.600 92.420,233.780 92.864,234.000 93.000 C 234.261 93.161,234.400 103.545,234.400 122.846 L 234.400 152.445 236.100 151.391 C 237.035 150.811,238.115 150.240,238.500 150.122 C 238.885 150.003,239.200 149.748,239.200 149.553 C 239.200 149.359,239.545 149.200,239.967 149.200 C 240.388 149.200,240.793 149.065,240.867 148.900 C 241.020 148.554,243.779 147.212,246.400 146.208 C 247.390 145.828,248.513 145.356,248.895 145.159 C 249.277 144.962,249.941 144.800,250.371 144.800 C 250.801 144.800,251.264 144.620,251.400 144.400 C 251.536 144.180,252.076 144.000,252.600 144.000 C 253.124 144.000,253.664 143.820,253.800 143.600 C 253.936 143.380,254.566 143.200,255.200 143.200 C 255.834 143.200,256.464 143.020,256.600 142.800 C 256.736 142.580,257.546 142.400,258.400 142.400 C 259.254 142.400,260.051 142.242,260.170 142.049 C 260.994 140.716,287.006 140.716,287.830 142.049 C 287.949 142.242,288.746 142.400,289.600 142.400 C 290.454 142.400,291.264 142.580,291.400 142.800 C 291.536 143.020,292.089 143.200,292.629 143.200 C 293.169 143.200,293.923 143.362,294.305 143.561 C 294.687 143.760,295.810 144.155,296.800 144.440 C 299.329 145.169,306.726 148.255,307.200 148.780 C 307.310 148.902,307.940 149.268,308.600 149.594 C 310.052 150.311,316.519 154.393,316.800 154.770 C 316.910 154.918,317.630 155.477,318.400 156.012 C 324.046 159.938,336.400 173.630,336.400 175.961 C 336.400 176.203,336.580 176.400,336.800 176.400 C 337.020 176.400,337.200 176.655,337.200 176.967 C 337.200 177.278,337.353 177.593,337.539 177.667 C 337.844 177.786,341.980 186.069,342.849 188.300 C 343.042 188.795,343.404 189.695,343.654 190.300 C 344.483 192.312,344.713 192.979,345.547 195.800 C 346.320 198.414,346.562 199.548,347.681 205.800 C 348.233 208.888,348.233 226.603,347.680 230.000 C 346.516 237.149,345.183 242.092,343.553 245.295 C 343.359 245.677,343.200 246.352,343.200 246.795 C 343.200 247.238,343.020 247.600,342.800 247.600 C 342.580 247.600,342.400 247.866,342.400 248.190 C 342.400 248.515,341.391 250.720,340.157 253.090 C 338.923 255.461,337.708 257.804,337.457 258.297 C 337.206 258.790,336.865 259.195,336.700 259.197 C 336.535 259.199,336.400 259.387,336.400 259.616 C 336.400 259.973,335.003 262.197,334.400 262.800 C 334.290 262.910,333.179 264.350,331.931 266.000 C 327.927 271.292,315.877 282.372,314.100 282.394 C 313.825 282.397,313.600 282.580,313.600 282.800 C 313.600 283.020,313.438 283.200,313.241 283.200 C 313.043 283.200,311.738 283.889,310.341 284.732 C 306.825 286.852,301.579 289.280,297.400 290.720 C 293.480 292.071,291.138 292.649,285.400 293.678 C 282.108 294.269,266.046 294.276,262.800 293.688 C 258.316 292.875,251.302 291.116,249.700 290.401 C 248.598 289.910,246.873 289.197,245.800 288.789 C 243.664 287.977,236.159 284.159,235.600 283.600 C 234.151 282.151,233.638 282.373,232.373 284.995 C 230.539 288.798,224.965 293.600,222.386 293.600 C 221.980 293.600,221.536 293.780,221.400 294.000 C 221.061 294.549,213.507 294.508,212.119 293.950 C 211.503 293.703,210.595 293.343,210.100 293.150 C 207.758 292.239,206.861 291.630,204.571 289.400 C 201.760 286.662,200.122 283.532,199.548 279.800 C 198.733 274.505,199.307 94.047,200.147 91.809 C 203.392 83.156,212.904 78.069,221.354 80.467 M72.800 141.313 C 73.570 141.565,74.678 142.092,75.262 142.485 C 75.846 142.878,76.492 143.200,76.699 143.200 C 77.185 143.200,81.232 147.115,82.023 148.350 L 82.631 149.300 87.205 147.050 C 89.721 145.813,92.063 144.800,92.409 144.800 C 92.756 144.800,93.211 144.651,93.420 144.470 C 93.629 144.288,94.610 143.907,95.600 143.624 C 96.590 143.341,97.760 142.963,98.200 142.785 C 100.034 142.041,104.745 141.241,109.948 140.789 C 116.146 140.251,123.890 140.873,130.000 142.400 C 130.990 142.647,132.297 142.949,132.905 143.071 C 133.513 143.193,134.108 143.451,134.229 143.646 C 134.349 143.841,134.876 144.000,135.400 144.000 C 135.924 144.000,136.464 144.180,136.600 144.400 C 136.736 144.620,137.101 144.800,137.412 144.800 C 138.315 144.800,143.198 147.032,147.000 149.182 C 153.034 152.595,161.386 159.754,165.026 164.633 C 165.669 165.495,166.308 166.290,166.447 166.400 C 168.246 167.833,174.338 179.272,175.820 184.000 C 176.199 185.210,176.651 186.560,176.825 187.000 C 177.198 187.948,177.582 189.665,177.853 191.600 C 177.961 192.370,178.206 193.360,178.397 193.800 C 178.588 194.240,178.880 195.950,179.047 197.600 C 179.449 201.574,179.453 279.456,179.052 281.000 C 177.938 285.282,175.891 288.464,172.590 291.043 C 171.129 292.184,170.213 292.667,167.081 293.944 C 165.703 294.506,158.541 294.551,158.200 294.000 C 158.064 293.780,157.620 293.600,157.214 293.600 C 154.672 293.600,148.677 288.342,146.904 284.558 L 145.800 282.200 145.555 242.400 C 145.304 201.814,145.206 199.422,143.617 195.400 C 141.322 189.588,137.390 184.333,133.200 181.479 C 132.210 180.805,131.310 180.147,131.200 180.018 C 130.915 179.684,126.030 177.362,124.600 176.880 C 118.796 174.927,109.737 174.879,105.000 176.778 C 95.117 180.739,89.528 186.767,86.068 197.200 C 85.561 198.729,85.435 205.123,85.233 239.600 C 85.013 277.258,84.944 280.330,84.284 282.000 C 83.048 285.122,82.614 286.000,82.302 286.000 C 82.136 286.000,82.000 286.230,82.000 286.512 C 82.000 288.094,74.863 293.600,72.811 293.600 C 72.391 293.600,71.936 293.780,71.800 294.000 C 71.459 294.552,63.899 294.507,62.519 293.944 C 59.396 292.671,58.470 292.185,57.000 291.052 C 53.802 288.586,51.634 285.287,50.524 281.200 C 50.149 279.818,50.035 265.039,50.035 217.600 C 50.035 155.998,50.094 152.973,51.314 151.753 C 51.471 151.595,51.600 151.137,51.600 150.733 C 51.600 150.330,51.736 150.000,51.902 150.000 C 52.069 150.000,52.451 149.445,52.751 148.766 C 55.449 142.670,65.514 138.929,72.800 141.313 M269.000 176.398 C 254.528 178.375,241.070 189.935,236.854 204.009 C 233.243 216.065,234.113 227.926,239.304 237.400 C 239.545 237.840,239.938 238.560,240.178 239.000 C 242.335 242.959,246.059 247.237,250.400 250.745 C 251.390 251.545,252.260 252.335,252.333 252.500 C 252.407 252.665,252.610 252.800,252.785 252.800 C 252.960 252.800,254.114 253.409,255.349 254.153 C 256.585 254.897,258.632 255.904,259.898 256.392 C 261.164 256.879,262.560 257.427,263.000 257.609 C 267.329 259.399,283.513 259.359,284.627 257.556 C 284.748 257.360,285.199 257.200,285.629 257.200 C 286.059 257.200,286.723 257.040,287.105 256.844 C 287.487 256.648,289.200 255.793,290.911 254.944 C 296.246 252.296,301.032 248.291,304.596 243.490 C 305.613 242.121,306.665 240.729,306.934 240.399 C 307.673 239.490,310.400 233.692,310.400 233.028 C 310.400 232.709,310.580 232.336,310.800 232.200 C 311.020 232.064,311.200 231.524,311.200 231.000 C 311.200 230.476,311.380 229.936,311.600 229.800 C 311.820 229.664,312.000 228.944,312.000 228.200 C 312.000 227.456,312.157 226.750,312.348 226.632 C 312.721 226.402,313.283 221.093,313.283 217.800 C 313.283 214.507,312.721 209.198,312.348 208.968 C 312.157 208.850,312.000 208.221,312.000 207.571 C 312.000 206.921,311.842 206.077,311.648 205.695 C 311.455 205.313,310.977 204.010,310.587 202.800 C 309.710 200.080,308.345 197.045,307.919 196.867 C 307.743 196.793,307.600 196.558,307.600 196.345 C 307.600 194.955,300.428 186.611,296.990 184.000 C 295.268 182.693,292.194 180.865,289.400 179.488 C 288.520 179.055,287.487 178.542,287.105 178.350 C 286.723 178.157,286.136 178.000,285.800 178.000 C 285.464 178.000,284.877 177.839,284.495 177.643 C 282.262 176.494,273.467 175.787,269.000 176.398 " stroke="none" fill="#04042c" fill-rule="evenodd"></path><path id="path3" d="M214.900 80.294 C 215.945 80.376,217.655 80.376,218.700 80.294 C 219.745 80.212,218.890 80.144,216.800 80.144 C 214.710 80.144,213.855 80.212,214.900 80.294 M206.562 83.262 L 205.800 84.124 206.900 83.416 C 208.034 82.686,208.249 82.400,207.662 82.400 C 207.476 82.400,206.981 82.788,206.562 83.262 M204.175 85.300 L 203.000 86.600 204.300 85.425 C 205.015 84.779,205.600 84.194,205.600 84.125 C 205.600 83.816,205.270 84.088,204.175 85.300 M229.400 85.600 C 230.259 86.480,231.052 87.200,231.162 87.200 C 231.272 87.200,230.659 86.480,229.800 85.600 C 228.941 84.720,228.148 84.000,228.038 84.000 C 227.928 84.000,228.541 84.720,229.400 85.600 M201.516 88.900 C 200.878 89.896,200.343 91.200,200.572 91.200 C 200.653 91.200,201.095 90.480,201.553 89.600 C 202.460 87.860,202.439 87.458,201.516 88.900 M233.980 94.510 C 234.175 96.158,234.183 96.167,234.319 94.849 C 234.396 94.106,234.306 93.346,234.120 93.160 C 233.933 92.973,233.871 93.581,233.980 94.510 M199.397 187.400 C 199.397 237.780,199.443 258.331,199.500 233.068 C 199.557 207.805,199.557 166.585,199.500 141.468 C 199.443 116.351,199.397 137.020,199.397 187.400 M66.705 140.683 C 67.202 140.779,67.922 140.775,68.305 140.675 C 68.687 140.575,68.280 140.496,67.400 140.501 C 66.520 140.505,66.207 140.587,66.705 140.683 M113.091 140.689 C 113.801 140.777,115.061 140.779,115.891 140.692 C 116.721 140.605,116.140 140.533,114.600 140.531 C 113.060 140.529,112.381 140.600,113.091 140.689 M62.000 141.303 C 58.231 142.993,57.600 143.319,57.600 143.576 C 57.600 143.734,58.699 143.319,60.042 142.653 C 61.386 141.987,63.231 141.320,64.142 141.171 C 65.769 140.905,65.774 140.900,64.400 140.877 C 63.630 140.864,62.550 141.056,62.000 141.303 M70.600 141.174 C 71.480 141.325,73.100 141.838,74.200 142.313 C 75.651 142.940,75.933 142.989,75.229 142.493 C 73.873 141.537,71.621 140.804,70.200 140.856 C 69.175 140.894,69.234 140.940,70.600 141.174 M105.400 141.176 C 104.946 141.357,105.899 141.417,107.600 141.315 C 111.507 141.082,112.081 140.864,108.800 140.860 C 107.370 140.858,105.840 141.000,105.400 141.176 M118.033 140.946 C 118.125 141.027,119.730 141.187,121.600 141.302 C 123.527 141.420,124.653 141.369,124.200 141.184 C 123.430 140.868,117.693 140.648,118.033 140.946 M265.115 141.128 C 264.738 141.278,268.736 141.400,274.000 141.400 C 279.264 141.400,283.262 141.278,282.885 141.128 C 282.508 140.979,278.510 140.856,274.000 140.856 C 269.490 140.856,265.492 140.979,265.115 141.128 M101.200 142.012 C 100.781 142.291,101.142 142.333,102.400 142.150 C 104.641 141.825,104.960 141.598,103.167 141.606 C 102.415 141.609,101.530 141.792,101.200 142.012 M125.233 141.745 C 125.325 141.825,126.201 141.992,127.179 142.118 C 128.330 142.265,128.754 142.216,128.379 141.979 C 127.845 141.640,124.858 141.419,125.233 141.745 M260.215 141.976 C 260.076 142.201,260.591 142.259,261.491 142.120 C 263.500 141.810,263.661 141.600,261.890 141.600 C 261.097 141.600,260.343 141.769,260.215 141.976 M284.833 141.743 C 285.250 142.102,287.997 142.319,287.785 141.976 C 287.657 141.769,286.903 141.600,286.110 141.600 C 285.316 141.600,284.742 141.665,284.833 141.743 M98.190 142.816 C 98.021 143.089,98.323 143.138,99.066 142.960 C 100.599 142.592,100.744 142.400,99.490 142.400 C 98.917 142.400,98.332 142.587,98.190 142.816 M129.233 142.543 C 129.325 142.621,130.030 142.801,130.800 142.942 C 131.785 143.123,132.022 143.082,131.600 142.806 C 131.058 142.450,128.837 142.203,129.233 142.543 M256.600 142.800 C 256.308 143.273,256.699 143.273,257.800 142.800 C 258.571 142.469,258.569 142.455,257.724 142.428 C 257.242 142.413,256.736 142.580,256.600 142.800 M290.200 142.800 C 291.301 143.273,291.692 143.273,291.400 142.800 C 291.264 142.580,290.758 142.413,290.276 142.428 C 289.431 142.455,289.429 142.469,290.200 142.800 M55.755 144.990 C 55.071 145.530,54.204 146.473,53.830 147.086 L 53.149 148.200 54.164 147.090 C 54.723 146.479,55.679 145.540,56.290 145.002 C 57.732 143.733,57.361 143.724,55.755 144.990 M78.800 144.967 C 78.800 145.388,80.005 146.528,80.221 146.312 C 80.322 146.211,80.044 145.802,79.602 145.402 C 79.161 145.003,78.800 144.807,78.800 144.967 M86.700 147.225 C 84.995 148.097,83.600 148.891,83.600 148.990 C 83.600 149.181,89.960 146.174,90.322 145.811 C 90.881 145.253,89.515 145.786,86.700 147.225 M141.233 146.528 C 141.876 147.019,146.394 149.114,146.226 148.843 C 145.992 148.464,141.909 146.400,141.393 146.400 C 141.214 146.400,141.142 146.457,141.233 146.528 M146.800 149.390 C 146.800 149.494,147.385 149.865,148.100 150.214 L 149.400 150.848 148.400 150.033 C 147.437 149.248,146.800 148.992,146.800 149.390 M235.700 151.646 C 234.337 152.519,233.895 153.106,235.100 152.443 C 236.018 151.939,237.456 150.827,237.200 150.819 C 237.090 150.816,236.415 151.188,235.700 151.646 M150.800 151.735 C 150.800 151.828,151.790 152.651,153.000 153.565 C 154.210 154.478,155.193 155.085,155.185 154.913 C 155.169 154.594,150.800 151.427,150.800 151.735 M312.600 152.207 C 313.040 152.566,313.760 153.035,314.200 153.251 L 315.000 153.644 314.200 152.993 C 313.760 152.634,313.040 152.165,312.600 151.949 L 311.800 151.556 312.600 152.207 M50.252 154.900 C 49.917 156.149,49.992 279.639,50.328 280.485 C 50.478 280.862,50.600 252.557,50.600 217.585 C 50.600 182.613,50.576 154.000,50.547 154.000 C 50.517 154.000,50.385 154.405,50.252 154.900 M156.571 156.297 C 157.215 157.009,157.830 157.504,157.938 157.396 C 158.045 157.288,158.058 157.155,157.967 157.100 C 157.875 157.045,157.260 156.551,156.600 156.001 L 155.400 155.003 156.571 156.297 M158.400 157.829 C 158.400 158.076,158.790 158.456,160.618 159.995 C 161.389 160.643,161.250 160.400,160.219 159.295 C 158.630 157.592,158.400 157.407,158.400 157.829 M321.000 158.251 C 324.523 161.736,328.729 165.500,326.600 163.261 C 325.280 161.873,323.300 160.000,322.200 159.099 C 321.100 158.197,320.560 157.815,321.000 158.251 M162.817 162.286 C 162.826 162.459,163.576 163.410,164.483 164.400 C 166.200 166.275,165.835 165.565,163.910 163.286 C 163.299 162.563,162.808 162.113,162.817 162.286 M168.209 169.426 C 168.581 170.101,169.241 171.091,169.676 171.626 L 170.467 172.600 169.791 171.374 C 169.419 170.699,168.759 169.709,168.324 169.174 L 167.533 168.200 168.209 169.426 M332.255 170.200 C 332.867 171.080,333.420 171.875,333.484 171.967 C 333.548 172.058,333.600 171.962,333.600 171.752 C 333.600 171.542,333.047 170.747,332.371 169.985 L 331.142 168.600 332.255 170.200 M171.000 174.000 C 171.341 174.660,171.711 175.200,171.821 175.200 C 171.931 175.200,171.741 174.660,171.400 174.000 C 171.059 173.340,170.689 172.800,170.579 172.800 C 170.469 172.800,170.659 173.340,171.000 174.000 M111.025 175.147 C 110.379 175.286,112.089 175.403,114.825 175.406 C 117.561 175.409,119.260 175.296,118.600 175.153 C 117.065 174.822,112.552 174.819,111.025 175.147 M106.800 176.018 C 106.362 176.315,106.524 176.352,107.400 176.156 C 108.871 175.827,109.190 175.598,108.167 175.606 C 107.745 175.609,107.130 175.795,106.800 176.018 M121.400 176.000 C 121.840 176.189,122.470 176.344,122.800 176.344 C 123.178 176.344,123.104 176.217,122.600 176.000 C 122.160 175.811,121.530 175.656,121.200 175.656 C 120.822 175.656,120.896 175.783,121.400 176.000 M270.225 175.947 C 269.579 176.086,271.289 176.203,274.025 176.207 C 277.205 176.212,278.423 176.112,277.400 175.930 C 275.480 175.589,271.850 175.598,270.225 175.947 M265.200 176.800 C 264.667 177.145,264.667 177.188,265.200 177.188 C 265.530 177.188,266.070 177.013,266.400 176.800 C 266.933 176.455,266.933 176.412,266.400 176.412 C 266.070 176.412,265.530 176.587,265.200 176.800 M97.724 180.191 C 96.588 180.956,95.536 181.779,95.387 182.020 C 95.154 182.398,98.703 180.062,99.780 179.129 C 100.647 178.378,99.656 178.890,97.724 180.191 M131.200 179.889 C 131.200 180.075,131.785 180.570,132.500 180.989 C 134.447 182.130,138.166 185.802,139.847 188.242 C 141.501 190.644,142.029 191.077,140.923 189.124 C 139.395 186.428,131.200 178.643,131.200 179.889 M291.200 180.367 C 292.163 181.152,292.800 181.408,292.800 181.010 C 292.800 180.906,292.215 180.535,291.500 180.186 L 290.200 179.552 291.200 180.367 M254.500 181.246 C 253.137 182.119,252.695 182.706,253.900 182.043 C 254.818 181.539,256.256 180.427,256.000 180.419 C 255.890 180.416,255.215 180.788,254.500 181.246 M293.800 181.807 C 294.240 182.166,294.960 182.635,295.400 182.851 L 296.200 183.244 295.400 182.593 C 294.960 182.234,294.240 181.765,293.800 181.549 L 293.000 181.156 293.800 181.807 M246.589 187.700 L 243.800 190.600 246.700 187.811 C 248.295 186.277,249.600 184.972,249.600 184.911 C 249.600 184.617,249.180 185.006,246.589 187.700 M298.445 185.100 C 298.470 185.265,299.595 186.385,300.945 187.588 L 303.400 189.776 301.013 187.288 C 298.582 184.755,298.365 184.571,298.445 185.100 M91.544 185.900 C 90.393 187.289,89.906 188.000,90.104 188.000 C 90.214 188.000,90.786 187.370,91.373 186.600 C 92.463 185.171,92.595 184.632,91.544 185.900 M177.234 190.000 C 177.246 190.330,177.411 190.960,177.600 191.400 L 177.944 192.200 177.966 191.400 C 177.978 190.960,177.813 190.330,177.600 190.000 C 177.255 189.467,177.215 189.467,177.234 190.000 M141.600 190.939 C 141.600 191.366,142.914 193.619,143.071 193.462 C 143.277 193.256,142.095 190.800,141.790 190.800 C 141.685 190.800,141.600 190.862,141.600 190.939 M178.293 195.300 C 178.581 197.552,178.800 197.721,178.800 195.690 C 178.800 194.787,178.637 193.947,178.438 193.824 C 178.232 193.696,178.169 194.330,178.293 195.300 M240.953 194.500 C 239.576 196.836,239.486 197.035,240.187 196.200 C 241.000 195.232,241.700 194.000,241.438 194.000 C 241.333 194.000,241.115 194.225,240.953 194.500 M345.206 195.833 C 345.209 196.255,345.395 196.870,345.618 197.200 C 345.915 197.638,345.952 197.476,345.756 196.600 C 345.427 195.129,345.198 194.810,345.206 195.833 M144.012 196.800 C 144.012 197.130,144.187 197.670,144.400 198.000 C 144.745 198.533,144.788 198.533,144.788 198.000 C 144.788 197.670,144.613 197.130,144.400 196.800 C 144.055 196.267,144.012 196.267,144.012 196.800 M179.000 239.738 C 179.000 262.060,179.132 280.116,179.294 279.862 C 179.656 279.294,179.623 201.363,179.260 200.076 C 179.117 199.568,179.000 217.416,179.000 239.738 M85.059 201.088 C 84.921 201.919,84.848 219.880,84.897 241.000 L 84.985 279.400 85.192 239.600 C 85.307 217.710,85.379 199.749,85.354 199.688 C 85.329 199.626,85.196 200.256,85.059 201.088 M144.895 200.600 C 144.895 201.260,145.032 202.340,145.200 203.000 L 145.505 204.200 145.505 203.000 C 145.505 202.340,145.368 201.260,145.200 200.600 L 144.895 199.400 144.895 200.600 M310.229 201.600 C 310.376 202.150,310.664 202.870,310.867 203.200 C 311.125 203.617,311.157 203.495,310.971 202.800 C 310.824 202.250,310.536 201.530,310.333 201.200 C 310.075 200.783,310.043 200.905,310.229 201.600 M347.044 203.800 C 347.373 205.271,347.602 205.590,347.594 204.567 C 347.591 204.145,347.405 203.530,347.182 203.200 C 346.885 202.762,346.848 202.924,347.044 203.800 M311.228 204.676 C 311.213 205.158,311.380 205.664,311.600 205.800 C 312.073 206.092,312.073 205.701,311.600 204.600 C 311.269 203.829,311.255 203.831,311.228 204.676 M235.849 205.815 C 235.712 206.173,235.618 206.856,235.641 207.333 C 235.667 207.881,235.803 207.686,236.010 206.803 C 236.360 205.316,236.265 204.733,235.849 205.815 M312.028 207.876 C 312.013 208.358,312.180 208.864,312.400 209.000 C 312.873 209.292,312.873 208.901,312.400 207.800 C 312.069 207.029,312.055 207.031,312.028 207.876 M347.859 209.400 C 347.999 210.500,348.177 211.475,348.256 211.567 C 348.599 211.964,348.350 208.541,347.997 208.000 C 347.730 207.590,347.686 208.035,347.859 209.400 M234.863 210.800 C 234.823 211.570,234.706 212.920,234.602 213.800 L 234.412 215.400 234.823 213.800 C 235.048 212.920,235.166 211.570,235.084 210.800 L 234.934 209.400 234.863 210.800 M312.840 212.633 C 312.862 213.495,313.033 214.650,313.221 215.200 C 313.442 215.848,313.480 215.355,313.331 213.800 C 313.063 211.020,312.782 210.351,312.840 212.633 M313.090 220.750 C 312.931 221.493,312.820 222.663,312.844 223.350 C 312.881 224.417,312.941 224.336,313.249 222.800 C 313.448 221.810,313.559 220.640,313.496 220.200 C 313.418 219.659,313.286 219.837,313.090 220.750 M234.691 223.000 C 234.811 224.540,234.975 225.875,235.055 225.967 C 235.322 226.273,235.109 222.616,234.789 221.400 C 234.598 220.672,234.559 221.302,234.691 223.000 M348.064 225.467 C 348.029 226.164,347.896 227.064,347.770 227.467 C 347.553 228.159,347.565 228.160,347.994 227.491 C 348.245 227.102,348.377 226.202,348.289 225.491 L 348.128 224.200 348.064 225.467 M347.029 231.829 C 346.881 232.415,346.851 232.984,346.961 233.094 C 347.071 233.204,347.281 232.815,347.429 232.229 C 347.576 231.642,347.606 231.073,347.496 230.963 C 347.386 230.853,347.176 231.242,347.029 231.829 M310.587 232.600 C 310.484 232.930,310.312 233.479,310.205 233.821 C 310.097 234.162,310.166 234.345,310.357 234.227 C 310.548 234.109,310.791 233.559,310.897 233.006 C 311.106 231.913,310.890 231.630,310.587 232.600 M346.200 236.000 C 346.048 236.691,346.007 237.341,346.109 237.442 C 346.211 237.544,346.409 237.053,346.550 236.350 C 346.691 235.647,346.731 234.998,346.641 234.908 C 346.550 234.817,346.352 235.309,346.200 236.000 M345.088 240.083 C 344.972 240.587,344.683 241.618,344.445 242.373 C 344.208 243.128,344.160 243.578,344.337 243.373 C 344.822 242.814,345.762 239.628,345.515 239.381 C 345.396 239.263,345.205 239.579,345.088 240.083 M306.006 241.589 C 305.773 242.023,304.675 243.508,303.565 244.889 L 301.547 247.400 303.516 245.251 C 305.398 243.198,307.079 240.800,306.637 240.800 C 306.522 240.800,306.238 241.155,306.006 241.589 M243.191 243.988 C 243.657 244.641,244.242 245.302,244.491 245.456 C 244.741 245.611,244.441 245.076,243.825 244.268 C 242.488 242.515,241.984 242.292,243.191 243.988 M249.751 250.500 C 250.852 251.545,251.922 252.400,252.130 252.400 C 252.338 252.400,251.989 252.010,251.354 251.533 C 250.719 251.056,249.648 250.201,248.974 249.633 C 248.300 249.065,248.649 249.455,249.751 250.500 M298.200 250.263 C 296.488 251.831,296.436 251.918,297.838 250.863 C 299.319 249.749,300.727 248.376,300.349 248.415 C 300.267 248.424,299.300 249.255,298.200 250.263 M291.271 254.778 C 289.026 255.987,288.094 256.658,289.415 256.114 C 290.799 255.544,293.600 253.990,293.600 253.792 C 293.600 253.521,293.626 253.510,291.271 254.778 M337.853 256.900 L 337.133 258.200 337.958 257.200 C 338.689 256.313,339.014 255.600,338.686 255.600 C 338.624 255.600,338.249 256.185,337.853 256.900 M258.800 256.231 C 258.800 256.501,260.878 257.256,261.076 257.057 C 261.167 256.967,260.692 256.701,260.020 256.467 C 259.349 256.233,258.800 256.127,258.800 256.231 M284.600 257.600 C 284.308 258.073,284.699 258.073,285.800 257.600 C 286.571 257.269,286.569 257.255,285.724 257.228 C 285.242 257.213,284.736 257.380,284.600 257.600 M264.033 258.144 C 264.125 258.223,264.740 258.408,265.400 258.556 C 266.276 258.752,266.438 258.715,266.000 258.418 C 265.460 258.053,263.632 257.798,264.033 258.144 M281.600 258.418 C 281.162 258.715,281.324 258.752,282.200 258.556 C 283.671 258.227,283.990 257.998,282.967 258.006 C 282.545 258.009,281.930 258.195,281.600 258.418 M269.600 259.263 C 271.887 259.616,275.679 259.619,278.000 259.270 C 279.086 259.107,277.419 258.997,273.800 258.993 C 270.129 258.988,268.499 259.093,269.600 259.263 M335.053 261.192 C 334.468 262.076,334.126 262.792,334.294 262.783 C 334.669 262.762,336.493 259.960,336.274 259.741 C 336.188 259.654,335.638 260.307,335.053 261.192 M328.043 270.041 C 327.077 271.118,326.447 271.982,326.643 271.959 C 326.840 271.937,327.790 271.037,328.757 269.959 C 329.723 268.882,330.353 268.018,330.157 268.041 C 329.960 268.063,329.010 268.963,328.043 270.041 M323.483 274.658 C 321.019 277.043,320.442 278.034,322.801 275.829 C 324.477 274.264,326.206 272.397,325.970 272.408 C 325.876 272.412,324.757 273.425,323.483 274.658 M315.618 281.050 C 313.909 282.263,313.770 282.400,314.248 282.400 C 314.458 282.400,315.253 281.867,316.015 281.216 C 317.688 279.787,317.505 279.710,315.618 281.050 M145.656 280.800 C 145.656 281.130,145.811 281.760,146.000 282.200 C 146.217 282.704,146.344 282.778,146.344 282.400 C 146.344 282.070,146.189 281.440,146.000 281.000 C 145.783 280.496,145.656 280.422,145.656 280.800 M199.656 280.800 C 199.656 281.130,199.811 281.760,200.000 282.200 C 200.217 282.704,200.344 282.778,200.344 282.400 C 200.344 282.070,200.189 281.440,200.000 281.000 C 199.783 280.496,199.656 280.422,199.656 280.800 M233.251 282.509 C 233.003 282.757,232.805 283.149,232.812 283.380 C 232.819 283.611,233.013 283.475,233.244 283.078 C 233.580 282.501,233.781 282.452,234.242 282.835 C 234.560 283.098,234.897 283.237,234.991 283.142 C 235.086 283.047,234.835 282.764,234.433 282.514 C 233.891 282.175,233.586 282.174,233.251 282.509 M82.915 284.225 C 82.438 285.201,82.174 286.000,82.329 286.000 C 82.636 286.000,84.120 282.787,83.911 282.578 C 83.841 282.507,83.393 283.249,82.915 284.225 M146.418 283.346 C 146.385 283.978,148.520 287.600,148.926 287.600 C 149.145 287.600,149.048 287.285,148.710 286.900 C 148.372 286.515,147.722 285.480,147.265 284.600 C 146.809 283.720,146.427 283.156,146.418 283.346 M176.378 286.441 C 176.110 286.941,175.061 288.262,174.046 289.375 C 173.031 290.489,172.642 291.040,173.181 290.600 C 175.018 289.100,177.426 286.093,177.073 285.740 C 176.959 285.625,176.646 285.941,176.378 286.441 M201.613 285.856 C 201.631 286.344,202.757 287.776,202.961 287.571 C 203.055 287.477,202.787 286.975,202.366 286.456 C 201.945 285.936,201.606 285.666,201.613 285.856 M231.178 286.441 C 230.910 286.941,229.867 288.262,228.859 289.375 L 227.027 291.400 228.747 289.800 C 230.704 287.979,232.188 286.055,231.876 285.743 C 231.760 285.627,231.446 285.941,231.178 286.441 M79.014 289.336 C 77.482 290.892,76.672 291.857,77.214 291.480 C 78.594 290.520,82.000 287.146,82.000 286.738 C 82.000 286.282,82.149 286.152,79.014 289.336 M53.838 288.088 C 54.871 289.291,55.259 289.668,56.412 290.588 C 56.956 291.021,56.507 290.436,55.415 289.288 C 53.427 287.196,52.406 286.420,53.838 288.088 M150.000 288.955 C 151.291 290.397,154.772 292.961,155.056 292.677 C 155.176 292.557,154.763 292.194,154.137 291.870 C 153.512 291.546,152.100 290.506,151.000 289.559 C 149.900 288.612,149.450 288.340,150.000 288.955 M204.400 289.400 C 205.146 290.170,205.847 290.800,205.957 290.800 C 206.067 290.800,205.546 290.170,204.800 289.400 C 204.054 288.630,203.353 288.000,203.243 288.000 C 203.133 288.000,203.654 288.630,204.400 289.400 M298.400 290.000 C 297.410 290.415,296.870 290.752,297.200 290.748 C 297.872 290.740,301.228 289.263,300.600 289.252 C 300.380 289.248,299.390 289.585,298.400 290.000 M249.827 290.355 C 250.252 290.744,252.729 291.396,252.354 291.020 C 252.219 290.886,251.511 290.604,250.781 290.395 C 250.051 290.185,249.622 290.168,249.827 290.355 M294.456 291.259 C 293.717 291.472,293.187 291.720,293.279 291.812 C 293.481 292.014,296.400 291.237,296.400 290.981 C 296.400 290.746,296.082 290.791,294.456 291.259 M58.344 291.976 C 58.864 292.429,59.479 292.800,59.711 292.800 C 60.203 292.800,60.179 292.780,58.600 291.855 L 57.400 291.153 58.344 291.976 M170.600 292.027 C 169.940 292.450,169.605 292.797,169.856 292.798 C 170.106 292.799,170.736 292.446,171.256 292.013 C 172.445 291.023,172.159 291.029,170.600 292.027 M290.600 292.400 C 290.096 292.617,290.022 292.744,290.400 292.744 C 290.730 292.744,291.360 292.589,291.800 292.400 C 292.304 292.183,292.378 292.056,292.000 292.056 C 291.670 292.056,291.040 292.211,290.600 292.400 M260.200 293.200 C 260.640 293.389,261.360 293.538,261.800 293.532 C 262.443 293.523,262.404 293.457,261.600 293.200 C 260.232 292.762,259.181 292.762,260.200 293.200 M286.600 293.200 C 285.493 293.482,285.477 293.509,286.400 293.547 C 286.950 293.569,287.670 293.413,288.000 293.200 C 288.681 292.760,288.329 292.760,286.600 293.200 M62.866 294.049 C 63.160 294.235,64.300 294.376,65.400 294.362 C 67.795 294.332,67.397 294.129,64.466 293.887 C 63.218 293.784,62.554 293.851,62.866 294.049 M69.400 294.000 L 67.400 294.274 69.476 294.337 C 70.618 294.372,71.664 294.220,71.800 294.000 C 71.936 293.780,71.902 293.628,71.724 293.663 C 71.546 293.697,70.500 293.849,69.400 294.000 M158.231 294.050 C 158.350 294.242,159.277 294.400,160.290 294.400 C 161.304 294.400,162.058 294.334,161.967 294.253 C 161.590 293.921,158.032 293.728,158.231 294.050 M164.600 294.000 L 162.600 294.274 164.400 294.331 C 165.390 294.362,166.470 294.213,166.800 294.000 C 167.130 293.787,167.220 293.638,167.000 293.669 C 166.780 293.700,165.700 293.849,164.600 294.000 M212.400 293.994 C 212.730 294.211,213.435 294.391,213.967 294.394 C 215.251 294.402,214.925 294.175,213.200 293.858 C 212.215 293.677,211.978 293.718,212.400 293.994 M220.000 294.000 L 218.600 294.295 219.876 294.347 C 220.578 294.376,221.264 294.220,221.400 294.000 C 221.536 293.780,221.592 293.624,221.524 293.653 C 221.456 293.682,220.770 293.838,220.000 294.000 M265.000 294.015 C 265.774 294.333,269.904 294.549,269.567 294.254 C 269.475 294.174,268.230 294.013,266.800 293.898 C 265.273 293.774,264.530 293.822,265.000 294.015 M280.400 294.000 L 278.200 294.270 280.400 294.329 C 281.610 294.361,282.870 294.213,283.200 294.000 C 283.888 293.555,284.029 293.555,280.400 294.000 " stroke="none" fill="#5a4569" fill-rule="evenodd"></path><path id="path4" d="M212.200 80.800 L 211.400 81.144 212.200 81.144 C 212.640 81.144,213.360 80.989,213.800 80.800 L 214.600 80.456 213.800 80.456 C 213.360 80.456,212.640 80.611,212.200 80.800 M219.800 80.800 C 220.240 80.989,220.960 81.144,221.400 81.144 L 222.200 81.144 221.400 80.800 C 220.960 80.611,220.240 80.456,219.800 80.456 L 219.000 80.456 219.800 80.800 M206.995 83.353 C 204.775 84.859,203.640 86.014,202.622 87.800 C 201.946 88.987,201.947 88.990,202.670 88.017 C 203.859 86.416,205.936 84.453,207.623 83.338 C 208.998 82.427,209.468 82.000,209.095 82.000 C 209.037 82.000,208.092 82.609,206.995 83.353 M224.953 82.524 C 228.443 84.730,231.383 87.925,232.410 90.625 C 232.637 91.222,232.920 91.613,233.039 91.494 C 234.125 90.408,226.439 81.876,224.508 82.024 C 224.339 82.036,224.539 82.261,224.953 82.524 M233.256 92.600 C 233.256 93.040,233.411 93.760,233.600 94.200 L 233.944 95.000 233.944 94.200 C 233.944 93.760,233.789 93.040,233.600 92.600 L 233.256 91.800 233.256 92.600 M199.852 93.700 C 199.517 94.950,199.592 280.039,199.928 280.885 C 200.078 281.262,200.200 239.097,200.200 187.185 C 200.200 135.273,200.176 92.800,200.147 92.800 C 200.117 92.800,199.985 93.205,199.852 93.700 M234.097 124.276 C 234.006 150.917,234.115 154.231,235.034 152.745 C 235.214 152.453,235.150 152.384,234.864 152.560 C 234.521 152.772,234.379 145.661,234.300 124.322 L 234.195 95.800 234.097 124.276 M66.505 141.087 C 67.114 141.179,68.014 141.177,68.505 141.082 C 68.997 140.987,68.500 140.911,67.400 140.914 C 66.300 140.917,65.897 140.995,66.505 141.087 M112.912 141.095 C 113.964 141.177,115.584 141.176,116.512 141.092 C 117.440 141.008,116.580 140.941,114.600 140.942 C 112.620 140.943,111.860 141.012,112.912 141.095 M105.200 141.600 C 103.856 142.031,105.308 142.031,107.000 141.600 C 108.078 141.326,108.098 141.294,107.200 141.287 C 106.650 141.283,105.750 141.424,105.200 141.600 M264.400 141.600 C 262.348 142.032,264.655 142.046,267.400 141.618 L 269.400 141.307 267.600 141.306 C 266.610 141.306,265.170 141.438,264.400 141.600 M278.433 141.351 C 278.525 141.435,280.040 141.604,281.800 141.727 C 284.150 141.892,284.575 141.858,283.400 141.599 C 281.806 141.247,278.116 141.064,278.433 141.351 M127.400 142.400 C 127.840 142.589,128.470 142.744,128.800 142.744 C 129.178 142.744,129.104 142.617,128.600 142.400 C 128.160 142.211,127.530 142.056,127.200 142.056 C 126.822 142.056,126.896 142.183,127.400 142.400 M260.000 142.291 C 258.080 142.639,254.677 143.590,254.439 143.844 C 254.308 143.984,254.560 144.002,255.000 143.884 C 255.440 143.765,256.790 143.447,258.000 143.176 C 262.375 142.198,263.672 141.624,260.000 142.291 M287.000 142.438 C 287.880 142.662,290.040 143.201,291.800 143.637 C 293.560 144.072,295.360 144.535,295.800 144.664 C 296.240 144.793,296.481 144.773,296.335 144.618 C 295.968 144.228,289.390 142.526,287.200 142.255 L 285.400 142.031 287.000 142.438 M75.210 142.923 C 75.578 143.326,78.425 145.200,78.672 145.200 C 79.027 145.200,77.140 143.791,76.000 143.205 C 75.450 142.923,75.095 142.796,75.210 142.923 M251.800 144.399 C 251.360 144.588,250.141 145.052,249.091 145.429 C 248.041 145.807,247.240 146.174,247.312 146.245 C 247.383 146.316,248.962 145.846,250.821 145.201 C 252.679 144.556,253.840 144.033,253.400 144.041 C 252.960 144.048,252.240 144.209,251.800 144.399 M297.200 145.200 C 297.530 145.413,298.070 145.588,298.400 145.588 C 298.933 145.588,298.933 145.545,298.400 145.200 C 298.070 144.987,297.530 144.812,297.200 144.812 C 296.667 144.812,296.667 144.855,297.200 145.200 M53.923 147.500 C 53.218 148.321,52.690 149.200,52.901 149.200 C 52.983 149.200,53.449 148.660,53.937 148.000 C 54.901 146.696,54.892 146.372,53.923 147.500 M240.800 149.032 C 238.930 150.029,237.220 151.031,237.000 151.260 C 236.649 151.625,244.337 147.761,244.767 147.357 C 245.385 146.775,243.702 147.486,240.800 149.032 M303.200 147.356 C 303.200 147.468,304.325 148.104,305.700 148.770 C 307.075 149.435,309.190 150.536,310.400 151.215 C 311.610 151.894,312.179 152.111,311.664 151.696 C 310.941 151.114,306.721 148.840,303.500 147.297 C 303.335 147.217,303.200 147.244,303.200 147.356 M81.594 148.700 C 82.575 150.182,82.752 150.236,83.824 149.378 C 84.561 148.787,84.552 148.779,83.648 149.220 C 82.809 149.629,82.581 149.548,81.715 148.542 L 80.734 147.400 81.594 148.700 M149.000 151.007 C 149.440 151.366,150.160 151.835,150.600 152.051 L 151.400 152.444 150.600 151.793 C 150.160 151.434,149.440 150.965,149.000 150.749 L 148.200 150.356 149.000 151.007 M314.788 153.881 C 320.063 157.719,326.621 163.797,330.000 167.980 C 332.501 171.075,333.301 171.843,331.936 169.839 C 330.604 167.883,323.461 160.403,320.796 158.174 C 318.776 156.484,315.102 153.765,314.400 153.440 C 314.070 153.288,314.244 153.486,314.788 153.881 M50.534 217.400 C 50.504 251.720,50.597 280.216,50.740 280.724 C 50.977 281.568,50.942 196.835,50.693 167.400 C 50.635 160.580,50.564 183.080,50.534 217.400 M159.600 159.325 C 159.600 159.394,160.185 159.979,160.900 160.625 L 162.200 161.800 161.025 160.500 C 159.930 159.288,159.600 159.016,159.600 159.325 M164.155 164.519 C 165.003 165.553,165.780 166.400,165.882 166.400 C 166.155 166.400,163.621 163.260,163.077 162.924 C 162.822 162.766,163.307 163.484,164.155 164.519 M334.477 173.900 C 335.221 174.945,336.325 176.655,336.932 177.700 C 337.538 178.745,338.131 179.600,338.249 179.600 C 338.704 179.600,333.932 172.041,333.462 172.017 C 333.277 172.008,333.733 172.855,334.477 173.900 M109.200 175.200 C 107.856 175.631,109.308 175.631,111.000 175.200 C 112.078 174.926,112.098 174.894,111.200 174.887 C 110.650 174.883,109.750 175.024,109.200 175.200 M117.633 174.947 C 117.725 175.028,118.520 175.204,119.400 175.338 C 120.515 175.507,120.758 175.471,120.200 175.219 C 119.432 174.871,117.290 174.644,117.633 174.947 M267.400 176.000 L 266.200 176.305 267.600 176.305 C 268.370 176.305,269.540 176.168,270.200 176.000 L 271.400 175.695 270.000 175.695 C 269.230 175.695,268.060 175.832,267.400 176.000 M277.800 176.023 C 278.680 176.205,279.850 176.346,280.400 176.337 L 281.400 176.320 280.400 176.000 C 279.850 175.824,278.680 175.683,277.800 175.686 L 276.200 175.692 277.800 176.023 M263.800 176.800 L 263.000 177.144 263.800 177.166 C 264.240 177.178,264.870 177.013,265.200 176.800 C 265.995 176.286,264.996 176.286,263.800 176.800 M282.600 176.774 C 284.842 177.672,289.696 179.137,289.372 178.819 C 288.920 178.376,283.072 176.389,282.329 176.427 C 282.038 176.442,282.160 176.598,282.600 176.774 M259.600 178.279 C 257.850 178.908,253.970 181.068,251.831 182.604 C 249.644 184.175,242.699 190.800,243.239 190.800 C 243.360 190.800,244.976 189.296,246.830 187.457 C 250.522 183.795,253.874 181.378,257.829 179.528 C 259.243 178.866,260.400 178.252,260.400 178.162 C 260.400 178.073,260.355 178.014,260.300 178.032 C 260.245 178.049,259.930 178.160,259.600 178.279 M294.447 181.952 C 296.123 183.026,297.618 184.106,297.770 184.352 C 297.923 184.599,298.230 184.800,298.454 184.800 C 298.678 184.800,298.353 184.374,297.731 183.854 C 296.320 182.674,292.149 180.000,291.719 180.000 C 291.544 180.000,292.771 180.879,294.447 181.952 M94.975 182.100 L 93.800 183.400 95.100 182.225 C 95.815 181.579,96.400 180.994,96.400 180.925 C 96.400 180.616,96.070 180.888,94.975 182.100 M136.600 184.000 C 137.906 185.320,139.065 186.400,139.175 186.400 C 139.285 186.400,138.306 185.320,137.000 184.000 C 135.694 182.680,134.535 181.600,134.425 181.600 C 134.315 181.600,135.294 182.680,136.600 184.000 M340.136 183.700 C 340.258 183.975,341.037 185.766,341.866 187.679 C 342.696 189.593,343.432 191.101,343.502 191.031 C 343.779 190.754,340.543 183.200,340.147 183.200 C 340.019 183.200,340.014 183.425,340.136 183.700 M91.978 185.100 L 90.600 186.600 92.100 185.222 C 93.496 183.938,93.784 183.600,93.478 183.600 C 93.412 183.600,92.737 184.275,91.978 185.100 M301.200 187.391 C 302.410 188.706,303.445 189.861,303.500 189.957 C 303.555 190.054,303.685 190.048,303.790 189.944 C 303.894 189.840,302.859 188.685,301.490 187.377 L 299.000 185.000 301.200 187.391 M176.644 188.600 C 176.973 190.071,177.202 190.390,177.194 189.367 C 177.191 188.945,177.005 188.330,176.782 188.000 C 176.485 187.562,176.448 187.724,176.644 188.600 M305.861 193.073 C 307.725 195.788,308.842 197.193,308.189 196.000 C 307.435 194.623,304.773 190.831,304.396 190.598 C 304.172 190.459,304.831 191.573,305.861 193.073 M87.144 192.633 C 86.698 193.642,86.404 194.538,86.491 194.624 C 86.578 194.711,87.027 193.886,87.490 192.791 C 87.953 191.696,88.247 190.800,88.143 190.800 C 88.040 190.800,87.590 191.625,87.144 192.633 M242.329 191.900 C 241.175 193.257,239.915 195.248,240.096 195.429 C 240.196 195.530,240.938 194.619,241.743 193.406 C 243.209 191.199,243.448 190.584,242.329 191.900 M343.612 192.000 C 343.612 192.330,343.787 192.870,344.000 193.200 C 344.345 193.733,344.388 193.733,344.388 193.200 C 344.388 192.870,344.213 192.330,344.000 192.000 C 343.655 191.467,343.612 191.467,343.612 192.000 M344.412 194.400 C 344.412 194.730,344.587 195.270,344.800 195.600 C 345.145 196.133,345.188 196.133,345.188 195.600 C 345.188 195.270,345.013 194.730,344.800 194.400 C 344.455 193.867,344.412 193.867,344.412 194.400 M238.380 198.440 C 237.702 199.783,237.244 200.978,237.363 201.096 C 237.481 201.214,237.756 200.842,237.974 200.269 C 238.192 199.696,238.740 198.501,239.193 197.614 C 239.646 196.726,239.925 196.000,239.814 196.000 C 239.703 196.000,239.057 197.098,238.380 198.440 M345.234 197.200 C 345.246 197.530,345.411 198.160,345.600 198.600 L 345.944 199.400 345.966 198.600 C 345.978 198.160,345.813 197.530,345.600 197.200 C 345.255 196.667,345.215 196.667,345.234 197.200 M178.509 198.800 C 178.509 199.790,178.587 200.195,178.682 199.700 C 178.778 199.205,178.778 198.395,178.682 197.900 C 178.587 197.405,178.509 197.810,178.509 198.800 M346.075 200.200 C 346.086 200.640,346.232 201.540,346.400 202.200 L 346.705 203.400 346.725 202.200 C 346.735 201.540,346.589 200.640,346.400 200.200 L 346.056 199.400 346.075 200.200 M178.992 240.200 C 178.992 261.540,179.041 270.211,179.100 259.470 C 179.159 248.728,179.159 231.268,179.100 220.670 C 179.041 210.071,178.992 218.860,178.992 240.200 M236.600 202.400 C 236.450 202.873,236.417 203.350,236.527 203.460 C 236.637 203.570,236.850 203.273,237.000 202.800 C 237.150 202.327,237.183 201.850,237.073 201.740 C 236.963 201.630,236.750 201.927,236.600 202.400 M347.088 205.800 C 347.211 207.120,347.376 208.275,347.456 208.367 C 347.735 208.689,347.516 205.388,347.193 204.400 C 346.989 203.779,346.949 204.309,347.088 205.800 M235.800 204.800 C 235.650 205.273,235.617 205.750,235.727 205.860 C 235.837 205.970,236.050 205.673,236.200 205.200 C 236.350 204.727,236.383 204.250,236.273 204.140 C 236.163 204.030,235.950 204.327,235.800 204.800 M311.801 205.401 C 311.947 206.060,312.160 206.870,312.273 207.200 C 312.387 207.530,312.725 209.240,313.025 211.000 C 313.566 214.174,313.569 214.179,313.354 211.600 C 313.235 210.170,312.884 208.028,312.575 206.839 C 311.976 204.540,311.353 203.383,311.801 205.401 M235.000 208.000 C 234.848 208.691,234.814 209.347,234.924 209.457 C 235.034 209.567,235.248 209.091,235.400 208.400 C 235.552 207.709,235.586 207.053,235.476 206.943 C 235.366 206.833,235.152 207.309,235.000 208.000 M347.932 215.447 C 348.090 221.615,347.946 223.828,346.945 230.600 C 346.815 231.480,346.830 232.085,346.977 231.943 C 347.999 230.969,348.794 214.993,348.049 210.400 C 347.888 209.410,347.836 211.681,347.932 215.447 M234.257 212.300 C 233.946 214.181,234.009 222.201,234.347 223.777 C 234.486 224.425,234.600 221.770,234.600 217.877 C 234.600 210.068,234.607 210.181,234.257 212.300 M313.742 217.800 C 313.741 219.780,313.808 220.640,313.892 219.712 C 313.976 218.784,313.977 217.164,313.895 216.112 C 313.812 215.060,313.743 215.820,313.742 217.800 M313.029 224.100 C 312.879 225.255,312.671 226.650,312.568 227.200 C 312.400 228.101,312.418 228.118,312.754 227.365 C 313.180 226.409,313.791 222.000,313.498 222.000 C 313.391 222.000,313.180 222.945,313.029 224.100 M234.834 226.600 C 234.822 227.040,234.987 227.670,235.200 228.000 C 235.714 228.795,235.714 227.796,235.200 226.600 L 234.856 225.800 234.834 226.600 M311.525 230.696 C 311.154 231.955,310.911 233.044,310.985 233.118 C 311.199 233.333,312.479 229.237,312.333 228.803 C 312.260 228.586,311.896 229.438,311.525 230.696 M346.449 233.400 C 346.416 233.840,346.296 234.650,346.183 235.200 L 345.977 236.200 346.406 235.219 C 346.642 234.679,346.761 233.869,346.672 233.419 C 346.513 232.621,346.507 232.621,346.449 233.400 M309.105 236.950 C 307.671 239.957,304.593 244.238,301.507 247.520 L 298.235 251.000 301.151 248.200 C 304.862 244.637,310.620 236.487,309.920 235.787 C 309.823 235.690,309.456 236.213,309.105 236.950 M238.291 236.700 C 238.997 238.559,242.431 243.991,242.903 243.997 C 243.070 243.998,242.503 242.965,241.643 241.700 C 240.783 240.435,239.684 238.635,239.199 237.700 C 238.306 235.974,237.806 235.424,238.291 236.700 M345.450 237.650 C 345.309 238.353,345.269 239.002,345.359 239.092 C 345.450 239.183,345.648 238.691,345.800 238.000 C 345.952 237.309,345.993 236.659,345.891 236.558 C 345.789 236.456,345.591 236.947,345.450 237.650 M344.600 240.400 C 344.450 240.873,344.417 241.350,344.527 241.460 C 344.637 241.570,344.850 241.273,345.000 240.800 C 345.150 240.327,345.183 239.850,345.073 239.740 C 344.963 239.630,344.750 239.927,344.600 240.400 M343.800 242.800 C 343.650 243.273,343.617 243.750,343.727 243.860 C 343.837 243.970,344.050 243.673,344.200 243.200 C 344.350 242.727,344.383 242.250,344.273 242.140 C 344.163 242.030,343.950 242.327,343.800 242.800 M243.811 245.182 C 245.114 246.804,246.438 248.096,246.616 247.917 C 246.708 247.825,245.937 246.951,244.903 245.975 C 243.869 244.999,243.378 244.642,243.811 245.182 M342.600 246.291 C 342.206 247.341,341.448 249.073,340.915 250.140 C 340.382 251.207,340.036 252.169,340.145 252.279 C 340.255 252.388,340.708 251.681,341.151 250.707 C 342.477 247.796,343.640 244.707,343.472 244.539 C 343.386 244.453,342.993 245.241,342.600 246.291 M248.397 249.900 C 251.205 252.320,251.990 252.697,249.600 250.479 C 248.390 249.355,247.233 248.428,247.028 248.418 C 246.823 248.408,247.439 249.075,248.397 249.900 M294.764 252.980 C 293.094 254.091,291.384 255.228,290.964 255.506 C 290.544 255.784,290.830 255.713,291.600 255.348 C 292.699 254.827,297.104 252.053,297.967 251.338 C 299.104 250.396,297.118 251.414,294.764 252.980 M254.400 254.400 C 254.950 254.830,255.580 255.182,255.800 255.182 C 256.020 255.182,255.750 254.830,255.200 254.400 C 254.650 253.970,254.020 253.618,253.800 253.618 C 253.580 253.618,253.850 253.970,254.400 254.400 M338.200 255.600 C 337.859 256.260,337.669 256.800,337.779 256.800 C 337.889 256.800,338.259 256.260,338.600 255.600 C 338.941 254.940,339.131 254.400,339.021 254.400 C 338.911 254.400,338.541 254.940,338.200 255.600 M334.177 261.879 C 332.130 264.895,329.294 268.310,326.200 271.486 C 323.560 274.195,321.496 276.410,321.614 276.406 C 321.867 276.399,328.614 269.628,330.390 267.600 C 332.045 265.710,337.864 257.200,337.501 257.200 C 337.420 257.200,335.925 259.306,334.177 261.879 M262.200 258.000 C 262.336 258.220,262.842 258.387,263.324 258.372 C 264.169 258.345,264.171 258.331,263.400 258.000 C 262.299 257.527,261.908 257.527,262.200 258.000 M284.400 258.000 C 283.576 258.264,283.541 258.326,284.200 258.354 C 284.640 258.373,285.270 258.213,285.600 258.000 C 286.301 257.547,285.814 257.547,284.400 258.000 M265.000 258.790 C 265.764 259.128,268.314 259.357,267.967 259.056 C 267.875 258.976,266.990 258.804,266.000 258.673 C 264.798 258.514,264.466 258.553,265.000 258.790 M280.400 258.856 C 279.410 259.059,276.890 259.374,274.800 259.557 C 271.539 259.841,271.340 259.896,273.400 259.943 C 275.767 259.996,282.676 259.058,283.110 258.623 C 283.400 258.334,282.627 258.400,280.400 258.856 M268.900 259.476 C 269.285 259.576,269.915 259.576,270.300 259.476 C 270.685 259.375,270.370 259.293,269.600 259.293 C 268.830 259.293,268.515 259.375,268.900 259.476 M319.400 277.851 C 316.800 280.065,309.590 284.612,305.700 286.491 C 301.651 288.447,300.187 289.401,303.100 288.184 C 308.349 285.993,322.892 276.740,320.970 276.814 C 320.766 276.822,320.060 277.289,319.400 277.851 M145.628 279.033 C 145.644 279.675,145.816 280.560,146.010 281.000 C 146.247 281.534,146.286 281.202,146.127 280.000 C 145.846 277.880,145.588 277.380,145.628 279.033 M177.310 284.009 C 176.847 285.104,176.553 286.000,176.657 286.000 C 176.927 286.000,178.498 282.365,178.309 282.176 C 178.222 282.089,177.773 282.914,177.310 284.009 M200.400 282.349 C 200.400 286.030,207.825 292.854,212.800 293.746 C 213.674 293.902,213.332 293.693,211.889 293.188 C 206.951 291.460,203.844 288.764,201.589 284.251 C 200.935 282.943,200.400 282.087,200.400 282.349 M232.114 284.000 C 231.649 285.100,231.343 286.000,231.433 286.000 C 231.524 286.000,232.032 285.100,232.563 284.000 C 233.094 282.900,233.400 282.000,233.243 282.000 C 233.087 282.000,232.579 282.900,232.114 284.000 M234.766 282.718 C 236.051 283.762,244.397 288.137,244.640 287.894 C 244.744 287.789,243.518 287.063,241.915 286.280 C 240.312 285.497,237.830 284.199,236.400 283.395 C 234.970 282.592,234.235 282.287,234.766 282.718 M53.164 286.733 C 53.380 287.136,53.871 287.721,54.255 288.033 C 54.687 288.384,54.590 288.104,54.001 287.300 C 52.951 285.865,52.557 285.598,53.164 286.733 M150.400 289.000 C 151.146 289.770,151.847 290.400,151.957 290.400 C 152.067 290.400,151.546 289.770,150.800 289.000 C 150.054 288.230,149.353 287.600,149.243 287.600 C 149.133 287.600,149.654 288.230,150.400 289.000 M228.302 289.379 C 227.257 290.341,225.592 291.520,224.602 291.999 C 222.604 292.966,222.194 293.411,223.896 292.764 C 225.670 292.089,227.295 290.959,228.981 289.225 C 231.054 287.095,230.695 287.176,228.302 289.379 M246.000 288.566 C 246.550 288.860,247.450 289.212,248.000 289.349 C 248.550 289.486,248.280 289.252,247.400 288.829 C 245.590 287.958,244.468 287.748,246.000 288.566 M249.600 290.000 C 249.930 290.213,250.470 290.388,250.800 290.388 C 251.333 290.388,251.333 290.345,250.800 290.000 C 250.470 289.787,249.930 289.612,249.600 289.612 C 249.067 289.612,249.067 289.655,249.600 290.000 M296.200 290.434 C 295.100 290.859,294.720 291.105,295.356 290.981 C 296.614 290.737,299.250 289.666,298.600 289.664 C 298.380 289.663,297.300 290.009,296.200 290.434 M75.200 292.000 C 74.430 292.422,73.944 292.774,74.120 292.783 C 74.544 292.805,76.800 291.632,76.800 291.390 C 76.800 291.128,76.777 291.137,75.200 292.000 M254.600 291.600 C 255.040 291.789,255.760 291.938,256.200 291.932 C 256.843 291.923,256.804 291.857,256.000 291.600 C 254.632 291.162,253.581 291.162,254.600 291.600 M291.200 291.780 C 290.210 292.068,288.590 292.495,287.600 292.729 L 285.800 293.155 287.600 292.936 C 289.610 292.691,293.609 291.724,293.927 291.406 C 294.268 291.065,293.109 291.224,291.200 291.780 M257.800 292.381 C 258.568 292.729,260.710 292.956,260.367 292.653 C 260.275 292.572,259.480 292.396,258.600 292.262 C 257.485 292.093,257.242 292.129,257.800 292.381 M261.664 293.177 C 262.249 293.361,264.049 293.612,265.664 293.734 C 267.804 293.896,268.112 293.869,266.800 293.634 C 263.800 293.098,260.471 292.801,261.664 293.177 M62.600 293.600 C 63.040 293.789,63.670 293.944,64.000 293.944 C 64.378 293.944,64.304 293.817,63.800 293.600 C 63.360 293.411,62.730 293.256,62.400 293.256 C 62.022 293.256,62.096 293.383,62.600 293.600 M220.200 293.600 L 219.400 293.944 220.200 293.944 C 220.640 293.944,221.360 293.789,221.800 293.600 L 222.600 293.256 221.800 293.256 C 221.360 293.256,220.640 293.411,220.200 293.600 M281.000 293.600 C 278.673 294.017,281.140 294.033,283.800 293.618 C 285.699 293.323,285.719 293.307,284.200 293.310 C 283.320 293.312,281.880 293.442,281.000 293.600 M215.700 294.287 C 216.305 294.378,217.295 294.378,217.900 294.287 C 218.505 294.195,218.010 294.120,216.800 294.120 C 215.590 294.120,215.095 294.195,215.700 294.287 M271.700 294.296 C 272.965 294.375,275.035 294.375,276.300 294.296 C 277.565 294.216,276.530 294.151,274.000 294.151 C 271.470 294.151,270.435 294.216,271.700 294.296 " stroke="none" fill="#84648c" fill-rule="evenodd"></path></g></svg>